<?xml version="1.0" encoding="utf-8"?>
<!-- Generator: Adobe Illustrator 25.4.1, SVG Export Plug-In . SVG Version: 6.00 Build 0)  -->
<svg version="1.1" id="Layer_1" xmlns="http://www.w3.org/2000/svg" xmlns:xlink="http://www.w3.org/1999/xlink" x="0px" y="0px"
	 viewBox="0 0 700 450" style="enable-background:new 0 0 700 450;" xml:space="preserve">
<style type="text/css">
	.st0{fill:none;stroke:#F48265;stroke-width:1.468;stroke-linecap:round;stroke-miterlimit:10;}
	.st1{fill:none;}
	.st2{fill:#F48265;}
	.st3{fill:#F3704F;}
	.st4{fill:#F9D032;}
	.st5{fill:#FFFFFF;}
	.st6{opacity:0.2;fill:#231F20;enable-background:new    ;}
	.st7{fill:#82C2DF;}
	.st8{fill:#005984;}
	.st9{fill:#4A7A9D;}
	.st10{fill:#9BCEE5;}
	.st11{fill:#83C2DF;}
	.st12{fill:#1E5A85;}
	.st13{fill:#E4F3F8;}
	.st14{opacity:0.3;fill:#005984;enable-background:new    ;}
	.st15{opacity:0.4;}
	.st16{fill:#FF4713;}
	.st17{opacity:0.08;fill:#383943;enable-background:new    ;}
	.st18{fill:none;stroke:#FFFFFF;stroke-width:2.1478;stroke-miterlimit:10;}
</style>
<g>
	<g>
		<g>
			<g>
				<path class="st0" d="M277.19,141.97c-31.81,0-57.55,25.84-57.55,57.55s25.84,57.55,57.55,57.55h41.1h48.35h56.18
					c31.81,0,57.55,25.84,57.55,57.55c0,30.83-24.17,55.88-54.61,57.45"/>
				<path class="st1" d="M329.02,141.97h-51.83"/>
				<g>
					<polygon class="st2" points="429.95,366.29 430.93,367.17 426.33,372.16 431.61,376.37 430.73,377.45 424.37,372.26 					"/>
				</g>
			</g>
		</g>
	</g>
	<g>
		<g id="Illustration-DDM-1-1000x1000_3_">
			<g>
				<g>
					<path class="st3" d="M355.78,260.62l1.96,0.06c0.66,0.02,1.22-0.5,1.24-1.17l0.13-4.17c0.02-0.66-0.5-1.22-1.17-1.24l-2.3-0.07
						c-0.64-3.69-2.22-7.17-4.6-10.09l1.7-1.6c0.43-0.42,0.46-1.1,0.04-1.55l-3.02-3.2c-0.42-0.43-1.1-0.46-1.55-0.04l-2.09,1.97
						c-1.11-0.74-2.31-1.38-3.59-1.92c-1.94-0.82-3.93-1.32-5.93-1.55l0.08-2.71c0.02-0.66-0.5-1.22-1.17-1.24l-4.17-0.13
						c-0.66-0.02-1.22,0.5-1.24,1.17l-0.1,3.15c-3.54,0.68-6.89,2.21-9.7,4.5l-2.44-2.6c-0.46-0.49-1.22-0.51-1.71-0.05l-3.04,2.86
						c-0.49,0.46-0.51,1.22-0.05,1.71l2.8,2.97c-0.75,1.13-1.41,2.34-1.95,3.64c-0.76,1.81-1.25,3.66-1.5,5.51l-3.86-0.11
						c-0.66-0.02-1.22,0.5-1.24,1.17l-0.13,4.17c-0.02,0.66,0.5,1.22,1.17,1.24l4.18,0.13c0.56,3.26,1.84,6.37,3.76,9.06l-2.65,2.49
						c-0.49,0.46-0.51,1.22-0.05,1.71l2.86,3.04c0.46,0.49,1.22,0.51,1.71,0.05l2.73-2.57c1.43,1.09,3.02,2.01,4.76,2.74
						c1.51,0.63,3.05,1.08,4.6,1.35l-0.09,3c-0.02,0.66,0.5,1.22,1.17,1.24l4.17,0.13c0.66,0.02,1.22-0.5,1.24-1.17l0.1-3.03
						c3.61-0.46,7.06-1.81,10.01-3.93l1.57,1.67c0.46,0.49,1.22,0.51,1.71,0.05l3.04-2.86c0.49-0.46,0.51-1.22,0.05-1.71l-1.66-1.76
						c1.07-1.42,1.98-2.99,2.7-4.71C355.03,264.37,355.52,262.5,355.78,260.62z M346.74,262.92c-2.89,7.08-11.01,10.4-18.04,7.39
						c-6.82-2.92-10.06-10.85-7.26-17.72c2.89-7.08,11.01-10.4,18.04-7.39C346.29,248.13,349.54,256.06,346.74,262.92z"/>
				</g>
				<g>
					<path class="st4" d="M387,218.26l1.48-0.51c0.5-0.17,0.76-0.72,0.59-1.22l-1.09-3.13c-0.17-0.5-0.72-0.76-1.22-0.59l-1.74,0.6
						c-1.53-2.56-3.69-4.7-6.29-6.19l0.81-1.68c0.21-0.43,0.03-0.96-0.41-1.16l-3.15-1.53c-0.43-0.21-0.96-0.03-1.16,0.41l-1,2.06
						c-1.04-0.23-2.11-0.36-3.21-0.4c-1.68-0.05-3.31,0.14-4.85,0.53l-0.7-2.04c-0.17-0.5-0.72-0.76-1.22-0.59l-3.13,1.09
						c-0.5,0.17-0.76,0.72-0.59,1.22l0.83,2.37c-2.44,1.5-4.48,3.6-5.93,6.1l-2.55-1.23c-0.48-0.23-1.05-0.03-1.29,0.45l-1.45,2.99
						c-0.23,0.48-0.03,1.05,0.45,1.29l2.93,1.42c-0.23,1.05-0.38,2.14-0.42,3.26c-0.04,1.56,0.11,3.07,0.45,4.52l-2.91,1.01
						c-0.5,0.17-0.76,0.72-0.59,1.22l1.09,3.13c0.17,0.5,0.72,0.76,1.22,0.59l3.14-1.09c1.35,2.27,3.18,4.2,5.38,5.66l-1.26,2.61
						c-0.23,0.48-0.03,1.05,0.45,1.29l2.99,1.45c0.48,0.23,1.05,0.03,1.29-0.45l1.3-2.68c1.37,0.39,2.82,0.63,4.32,0.68
						c1.31,0.03,2.58-0.07,3.81-0.3l0.78,2.25c0.17,0.5,0.72,0.76,1.22,0.59l3.13-1.09c0.5-0.17,0.76-0.72,0.59-1.22l-0.79-2.28
						c2.55-1.36,4.73-3.35,6.33-5.77l1.64,0.8c0.48,0.23,1.05,0.03,1.29-0.45l1.45-2.99c0.23-0.48,0.03-1.05-0.45-1.29l-1.73-0.84
						c0.39-1.36,0.63-2.8,0.67-4.27C387.53,221.24,387.37,219.7,387,218.26z M380.96,222.52c-0.14,6.09-5.24,10.86-11.32,10.62
						c-5.91-0.23-10.58-5.21-10.44-11.12c0.14-6.09,5.24-10.86,11.32-10.62C376.42,211.64,381.09,216.62,380.96,222.52z"/>
				</g>
			</g>
		</g>
		<path class="st5" d="M346.74,262.92c-2.89,7.08-11.01,10.4-18.04,7.39c-6.82-2.92-10.06-10.85-7.26-17.72
			c2.89-7.08,11.01-10.4,18.04-7.39C346.29,248.13,349.54,256.06,346.74,262.92z"/>
	</g>
	<g>
		<g>
			<path class="st3" d="M342.39,368.77c3.55,1.22,5.45,5.09,4.23,8.64s-5.09,5.45-8.64,4.23l-27.88-15.43l0.37-1.07L342.39,368.77z"
				/>
			
				<ellipse transform="matrix(0.735 -0.6781 0.6781 0.735 -164.1723 332.2476)" class="st6" cx="342.94" cy="376.14" rx="8.19" ry="8.19"/>
			
				<ellipse transform="matrix(0.735 -0.6781 0.6781 0.735 -164.4353 333.4864)" class="st2" cx="344.4" cy="377.1" rx="8.19" ry="8.19"/>
		</g>
		<path class="st7" d="M288.62,328.58c-12.64,13.41-19.6,30.86-19.6,49.35h32.49c0-9.93,3.65-19.31,10.31-26.6L288.62,328.58z"/>
		<path class="st8" d="M392.88,328.02l-22.74,23.22c6.7,7.3,10.37,16.71,10.37,26.68h32.49
			C413.01,359.16,405.87,341.5,392.88,328.02z"/>
		<path class="st9" d="M341.98,305.95v32.49c9.97,0.24,19.32,4.15,26.49,11.1l22.73-23.21C377.92,313.4,360.52,306.2,341.98,305.95z
			"/>
		<path class="st10" d="M339.6,305.97c-18.66,0.36-36.08,7.73-49.33,20.91l23.2,22.74c7.08-6.89,16.27-10.82,26.12-11.16
			L339.6,305.97L339.6,305.97z"/>
	</g>
	<g>
		<g>
			<polyline class="st11" points="341.74,45.4 407.14,89.02 407.22,96.54 274.89,96.54 274.81,89.1 341.74,45.4 			"/>
		</g>
		<g>
			<polyline class="st11" points="271.41,166 271.41,156.97 410.62,156.97 410.62,166 			"/>
		</g>
		<g>
			<polyline class="st12" points="264.21,165.6 264.21,170.28 417.83,170.28 417.83,165.6 			"/>
		</g>
		<rect x="303.43" y="161.87" class="st1" width="75.82" height="4.08"/>
		<rect x="311.85" y="157.11" class="st1" width="58.98" height="4.76"/>
		<g>
			<g>
				<ellipse class="st5" cx="341.18" cy="75.39" rx="9.13" ry="9.11"/>
			</g>
			<g>
				<g>
					<g>
						<path class="st11" d="M340.59,82.45v-1.74c-1-0.03-2.04-0.33-2.63-0.75l0.42-1.16c0.62,0.42,1.52,0.75,2.47,0.75
							c1.22,0,2.04-0.71,2.04-1.68c0-0.95-0.68-1.53-1.94-2.04c-1.75-0.69-2.85-1.48-2.85-2.98c0-1.42,1.01-2.5,2.6-2.76v-1.74h1.06
							v1.67c1.03,0.03,1.74,0.32,2.24,0.6l-0.43,1.14c-0.36-0.2-1.06-0.59-2.17-0.59c-1.32,0-1.82,0.79-1.82,1.48
							c0,0.9,0.64,1.34,2.14,1.96c1.78,0.72,2.66,1.62,2.66,3.15c0,1.36-0.95,2.63-2.72,2.92v1.78L340.59,82.45L340.59,82.45
							L340.59,82.45z"/>
					</g>
				</g>
			</g>
		</g>
		<g>
			<g>
				<g>
					<g>
						<polyline class="st13" points="318.53,153.19 318.53,103.43 329.72,103.43 329.72,153.19 318.53,153.19 						"/>
					</g>
					<g>
						<rect x="316.42" y="153.19" class="st14" width="15.41" height="3.77"/>
						<g>
							<rect x="317.24" y="149.4" class="st11" width="13.76" height="3.77"/>
							<rect x="317.24" y="149.4" class="st1" width="13.76" height="3.77"/>
						</g>
					</g>
					<g>
						<rect x="316.43" y="104.02" class="st11" width="15.41" height="3.77"/>
						<g>
							<rect x="317.25" y="107.82" class="st11" width="13.76" height="3.77"/>
							<rect x="317.25" y="107.82" class="st14" width="13.76" height="3.77"/>
						</g>
					</g>
				</g>
				<rect x="316.42" y="153.19" class="st11" width="15.41" height="3.77"/>
				<rect x="316.42" y="153.19" class="st14" width="15.41" height="3.77"/>
			</g>
			<g>
				<g>
					<polyline class="st13" points="288.84,153.19 288.84,103.43 300.02,103.43 300.02,153.19 288.84,153.19 					"/>
				</g>
				<g>
					<rect x="286.72" y="153.19" class="st14" width="15.41" height="3.77"/>
					<g>
						<rect x="287.55" y="149.4" class="st11" width="13.76" height="3.77"/>
						<rect x="287.55" y="149.4" class="st1" width="13.76" height="3.77"/>
					</g>
				</g>
				<g>
					<rect x="286.73" y="104.02" class="st11" width="15.41" height="3.77"/>
					<g>
						<rect x="287.56" y="107.82" class="st11" width="13.76" height="3.77"/>
						<rect x="287.56" y="107.82" class="st14" width="13.76" height="3.77"/>
					</g>
				</g>
				<rect x="286.72" y="153.19" class="st11" width="15.41" height="3.77"/>
				<rect x="286.72" y="153.19" class="st14" width="15.41" height="3.77"/>
			</g>
			<g>
				<g>
					<g>
						<polyline class="st13" points="382.01,153.19 382.01,103.43 393.2,103.43 393.2,153.19 382.01,153.19 						"/>
					</g>
					<g>
						<rect x="379.9" y="153.19" class="st14" width="15.41" height="3.77"/>
						<g>
							<rect x="380.73" y="149.4" class="st11" width="13.76" height="3.77"/>
							<rect x="380.73" y="149.4" class="st1" width="13.76" height="3.77"/>
						</g>
					</g>
					<g>
						<rect x="379.9" y="104.02" class="st11" width="15.41" height="3.77"/>
						<g>
							<rect x="380.73" y="107.82" class="st11" width="13.76" height="3.77"/>
							<rect x="380.73" y="107.82" class="st14" width="13.76" height="3.77"/>
						</g>
					</g>
				</g>
				<rect x="379.9" y="153.19" class="st11" width="15.41" height="3.77"/>
				<rect x="379.9" y="153.19" class="st14" width="15.41" height="3.77"/>
			</g>
			<g>
				<g>
					<polyline class="st13" points="352.31,153.19 352.31,103.43 363.5,103.43 363.5,153.19 352.31,153.19 					"/>
				</g>
				<rect x="350.2" y="153.19" class="st11" width="15.41" height="3.77"/>
				<g>
					<rect x="351.03" y="149.4" class="st11" width="13.76" height="3.77"/>
					<rect x="351.03" y="149.4" class="st1" width="13.76" height="3.77"/>
				</g>
				<g>
					<rect x="350.2" y="104.02" class="st11" width="15.41" height="3.77"/>
					<g>
						<rect x="351.03" y="107.82" class="st11" width="13.76" height="3.77"/>
						<rect x="351.03" y="107.82" class="st14" width="13.76" height="3.77"/>
					</g>
				</g>
				<rect x="350.2" y="153.19" class="st14" width="15.41" height="3.77"/>
			</g>
		</g>
		<g>
			<rect x="274.98" y="95.08" class="st11" width="132.4" height="9.03"/>
		</g>
		<g>
			<rect x="274.81" y="95.08" class="st14" width="132.4" height="9.03"/>
		</g>
		<g>
			<g>
				<g>
					<g>
						<g>
							<path class="st2" d="M358.94,140.37l-17.27-5.75c-0.22-0.06-0.44-0.06-0.63,0l-17.27,5.75c-0.41,0.16-0.69,0.5-0.69,0.94
								v14.06c0,5.28,2.32,10.55,6.56,14.75c1.63,1.63,3.92,3.43,6.37,4.93c1.42,0.88,4.02,2.35,5.36,2.35s3.92-1.51,5.36-2.35
								c2.41-1.51,4.74-3.33,6.37-4.93c4.24-4.24,6.56-9.47,6.56-14.75v-14.06C359.63,140.87,359.32,140.53,358.94,140.37z
								 M357.61,155.37c0,4.77-2.1,9.51-5.96,13.34c-3.54,3.55-9.13,6.72-10.32,6.72c-1.13,0-6.75-3.17-10.33-6.72
								c-3.83-3.83-5.96-8.56-5.96-13.34V142l16.29-5.44l16.29,5.44L357.61,155.37L357.61,155.37z"/>
						</g>
					</g>
					<g>
						<g>
							<path class="st3" d="M357.61,155.37c0,4.77-2.1,9.51-5.96,13.34c-3.54,3.55-9.13,6.72-10.32,6.72
								c-1.13,0-6.75-3.17-10.33-6.72c-3.83-3.83-5.96-8.56-5.96-13.34V142l16.29-5.44l16.29,5.44L357.61,155.37L357.61,155.37z"/>
						</g>
					</g>
					<g class="st15">
						<g>
							<path class="st16" d="M357.61,155.37c0,4.77-2.1,9.51-5.96,13.34c-3.54,3.55-9.13,6.72-10.32,6.72
								c-1.13,0-6.75-3.17-10.33-6.72c-3.83-3.83-5.96-8.56-5.96-13.34V142l16.29-5.44l16.29,5.44L357.61,155.37L357.61,155.37z"/>
						</g>
					</g>
				</g>
				<path class="st17" d="M341.39,136.6l16.29,5.44v13.37c0,4.77-2.1,9.51-5.96,13.34c-3.55,3.55-9.13,6.72-10.33,6.72L341.39,136.6
					L341.39,136.6z"/>
			</g>
			<g>
				<polyline class="st18" points="335.05,154.57 340.99,161.6 350.75,149.23 				"/>
			</g>
		</g>
	</g>
</g>
</svg>
